<mxfile host="app.diagrams.net" modified="2023-08-14T05:19:11.179Z" agent="Mozilla/5.0 (Windows NT 10.0; Win64; x64) AppleWebKit/537.36 (KHTML, like Gecko) Chrome/115.0.0.0 Safari/537.36" etag="PyKjGfhR4MFwGVq4czxy" version="21.6.8" type="github">
  <diagram name="Page-1" id="qJ1EviywXT2YNXSHyelQ">
    <mxGraphModel dx="592" dy="686" grid="1" gridSize="10" guides="1" tooltips="1" connect="1" arrows="1" fold="1" page="1" pageScale="1" pageWidth="4000" pageHeight="4000" math="0" shadow="0">
      <root>
        <mxCell id="0" />
        <mxCell id="1" parent="0" />
        <mxCell id="6i1OHVoLNh_Sow2SZ-JK-9" style="edgeStyle=orthogonalEdgeStyle;rounded=0;orthogonalLoop=1;jettySize=auto;html=1;exitX=0.5;exitY=1;exitDx=0;exitDy=0;exitPerimeter=0;entryX=0.5;entryY=0;entryDx=0;entryDy=0;" edge="1" parent="1" source="6i1OHVoLNh_Sow2SZ-JK-1" target="6i1OHVoLNh_Sow2SZ-JK-4">
          <mxGeometry relative="1" as="geometry" />
        </mxCell>
        <mxCell id="6i1OHVoLNh_Sow2SZ-JK-1" value="Start" style="strokeWidth=2;html=1;shape=mxgraph.flowchart.start_1;whiteSpace=wrap;" vertex="1" parent="1">
          <mxGeometry x="440" y="70" width="100" height="60" as="geometry" />
        </mxCell>
        <mxCell id="6i1OHVoLNh_Sow2SZ-JK-10" style="edgeStyle=orthogonalEdgeStyle;rounded=0;orthogonalLoop=1;jettySize=auto;html=1;exitX=0.5;exitY=1;exitDx=0;exitDy=0;entryX=0.5;entryY=0;entryDx=0;entryDy=0;" edge="1" parent="1" source="6i1OHVoLNh_Sow2SZ-JK-4" target="6i1OHVoLNh_Sow2SZ-JK-6">
          <mxGeometry relative="1" as="geometry" />
        </mxCell>
        <mxCell id="6i1OHVoLNh_Sow2SZ-JK-4" value="SFTP Connect" style="rounded=1;whiteSpace=wrap;html=1;absoluteArcSize=1;arcSize=14;strokeWidth=2;" vertex="1" parent="1">
          <mxGeometry x="440" y="160" width="100" height="40" as="geometry" />
        </mxCell>
        <mxCell id="6i1OHVoLNh_Sow2SZ-JK-11" style="edgeStyle=orthogonalEdgeStyle;rounded=0;orthogonalLoop=1;jettySize=auto;html=1;exitX=0.5;exitY=1;exitDx=0;exitDy=0;entryX=0.5;entryY=0;entryDx=0;entryDy=0;" edge="1" parent="1" source="6i1OHVoLNh_Sow2SZ-JK-6" target="6i1OHVoLNh_Sow2SZ-JK-7">
          <mxGeometry relative="1" as="geometry" />
        </mxCell>
        <mxCell id="6i1OHVoLNh_Sow2SZ-JK-6" value="SFTP List" style="rounded=1;whiteSpace=wrap;html=1;absoluteArcSize=1;arcSize=14;strokeWidth=2;" vertex="1" parent="1">
          <mxGeometry x="440" y="240" width="100" height="40" as="geometry" />
        </mxCell>
        <mxCell id="6i1OHVoLNh_Sow2SZ-JK-12" style="edgeStyle=orthogonalEdgeStyle;rounded=0;orthogonalLoop=1;jettySize=auto;html=1;exitX=0.5;exitY=1;exitDx=0;exitDy=0;entryX=0.5;entryY=0;entryDx=0;entryDy=0;entryPerimeter=0;" edge="1" parent="1" source="6i1OHVoLNh_Sow2SZ-JK-7" target="6i1OHVoLNh_Sow2SZ-JK-8">
          <mxGeometry relative="1" as="geometry" />
        </mxCell>
        <mxCell id="6i1OHVoLNh_Sow2SZ-JK-7" value="files = SFTP List" style="shape=parallelogram;html=1;strokeWidth=2;perimeter=parallelogramPerimeter;whiteSpace=wrap;rounded=1;arcSize=12;size=0.23;" vertex="1" parent="1">
          <mxGeometry x="420" y="320" width="140" height="40" as="geometry" />
        </mxCell>
        <mxCell id="6i1OHVoLNh_Sow2SZ-JK-17" style="edgeStyle=orthogonalEdgeStyle;rounded=0;orthogonalLoop=1;jettySize=auto;html=1;exitX=1;exitY=0.5;exitDx=0;exitDy=0;exitPerimeter=0;entryX=0;entryY=0.5;entryDx=0;entryDy=0;" edge="1" parent="1" source="6i1OHVoLNh_Sow2SZ-JK-8" target="6i1OHVoLNh_Sow2SZ-JK-14">
          <mxGeometry relative="1" as="geometry" />
        </mxCell>
        <mxCell id="6i1OHVoLNh_Sow2SZ-JK-25" style="edgeStyle=orthogonalEdgeStyle;rounded=0;orthogonalLoop=1;jettySize=auto;html=1;exitX=0.5;exitY=1;exitDx=0;exitDy=0;exitPerimeter=0;" edge="1" parent="1" source="6i1OHVoLNh_Sow2SZ-JK-8">
          <mxGeometry relative="1" as="geometry">
            <mxPoint x="490" y="540" as="targetPoint" />
          </mxGeometry>
        </mxCell>
        <mxCell id="6i1OHVoLNh_Sow2SZ-JK-8" value="file exists" style="strokeWidth=2;html=1;shape=mxgraph.flowchart.decision;whiteSpace=wrap;" vertex="1" parent="1">
          <mxGeometry x="440" y="400" width="100" height="100" as="geometry" />
        </mxCell>
        <mxCell id="6i1OHVoLNh_Sow2SZ-JK-20" style="edgeStyle=orthogonalEdgeStyle;rounded=0;orthogonalLoop=1;jettySize=auto;html=1;entryX=0.5;entryY=0;entryDx=0;entryDy=0;entryPerimeter=0;" edge="1" parent="1" source="6i1OHVoLNh_Sow2SZ-JK-14" target="6i1OHVoLNh_Sow2SZ-JK-8">
          <mxGeometry relative="1" as="geometry">
            <Array as="points">
              <mxPoint x="660" y="380" />
              <mxPoint x="490" y="380" />
            </Array>
          </mxGeometry>
        </mxCell>
        <mxCell id="6i1OHVoLNh_Sow2SZ-JK-14" value="Download file" style="rounded=1;whiteSpace=wrap;html=1;absoluteArcSize=1;arcSize=14;strokeWidth=2;" vertex="1" parent="1">
          <mxGeometry x="620" y="430" width="100" height="40" as="geometry" />
        </mxCell>
        <mxCell id="6i1OHVoLNh_Sow2SZ-JK-26" value="End" style="strokeWidth=2;html=1;shape=mxgraph.flowchart.start_1;whiteSpace=wrap;" vertex="1" parent="1">
          <mxGeometry x="440" y="540" width="100" height="60" as="geometry" />
        </mxCell>
      </root>
    </mxGraphModel>
  </diagram>
</mxfile>
